<svg xmlns="http://www.w3.org/2000/svg" viewBox="0 0 160 160" role="img" aria-label="Green Aura Nursery logo">
  <circle cx="80" cy="80" r="74" fill="#eef3f1" stroke="#d4e4df" stroke-width="2"/>
  <circle cx="80" cy="80" r="56" fill="#dbe5e2"/>
  <path d="M80 112c-3 0-5.5-2.4-5.5-5.5V83.5c0-3 2.5-5.5 5.5-5.5s5.5 2.5 5.5 5.5v23c0 3.1-2.5 5.5-5.5 5.5z" fill="#178a5a"/>
  <path d="M78 82.5c-15.5-.1-28-12.7-28-28.2 0-1.9 2.1-3.1 3.8-2.3 11.9 5.7 21.5 14.8 27.2 25.8 1.2 2.1-.3 4.7-3 4.7z" fill="#178a5a"/>
  <path d="M82 82.5c15.5-.1 28-12.7 28-28.2 0-1.9-2.1-3.1-3.8-2.3-11.9 5.7-21.5 14.8-27.2 25.8-1.2 2.1.3 4.7 3 4.7z" fill="#178a5a"/>
</svg>
